<?xml version="1.0" encoding="UTF-8" standalone="no"?>
<svg
   xmlns:dc="http://purl.org/dc/elements/1.1/"
   xmlns:cc="http://creativecommons.org/ns#"
   xmlns:rdf="http://www.w3.org/1999/02/22-rdf-syntax-ns#"
   xmlns:svg="http://www.w3.org/2000/svg"
   xmlns="http://www.w3.org/2000/svg"
   xmlns:sodipodi="http://sodipodi.sourceforge.net/DTD/sodipodi-0.dtd"
   xmlns:inkscape="http://www.inkscape.org/namespaces/inkscape"
   width="128mm"
   height="128mm"
   viewBox="0 0 128 128"
   version="1.1"
   id="svg1773"
   inkscape:version="1.0.1 (3bc2e813f5, 2020-09-07)"
   sodipodi:docname="steering wheel symbols bump.svg">
  <defs
     id="defs1767">
    <rect
       x="19.377041"
       y="44.366742"
       width="72.162772"
       height="40.224064"
       id="rect2354" />
    <rect
       x="19.377041"
       y="44.366741"
       width="72.162773"
       height="40.224064"
       id="rect2354-7" />
    <rect
       x="19.377041"
       y="44.366741"
       width="72.162773"
       height="40.224064"
       id="rect2367" />
    <rect
       x="19.377041"
       y="44.366741"
       width="72.162773"
       height="40.224064"
       id="rect2354-9" />
    <rect
       x="19.377041"
       y="44.366741"
       width="72.162773"
       height="40.224064"
       id="rect2396" />
  </defs>
  <sodipodi:namedview
     id="base"
     pagecolor="#ffffff"
     bordercolor="#666666"
     borderopacity="1.0"
     inkscape:pageopacity="0.0"
     inkscape:pageshadow="2"
     inkscape:zoom="0.98994949"
     inkscape:cx="90.519449"
     inkscape:cy="124.07636"
     inkscape:document-units="mm"
     inkscape:current-layer="layer1"
     inkscape:document-rotation="0"
     showgrid="false"
     inkscape:window-width="1920"
     inkscape:window-height="1017"
     inkscape:window-x="-8"
     inkscape:window-y="-8"
     inkscape:window-maximized="1" />
  <metadata
     id="metadata1770">
    <rdf:RDF>
      <cc:Work
         rdf:about="">
        <dc:format>image/svg+xml</dc:format>
        <dc:type
           rdf:resource="http://purl.org/dc/dcmitype/StillImage" />
        <dc:title></dc:title>
      </cc:Work>
    </rdf:RDF>
  </metadata>
  <g
     inkscape:label="Warstwa 1"
     inkscape:groupmode="layer"
     id="layer1">
    <path
       style="fill:#000000;stroke-width:0.23934"
       d="m 24.584491,37.519404 c -2.641864,-1.200174 -3.727746,-4.521336 -2.264817,-6.92693 0.2595,-0.426715 0.471819,-0.83964 0.471819,-0.917613 0,-0.07796 -0.690312,-0.09781 -1.534026,-0.04409 -3.078363,0.196016 -7.641486,3.198573 -9.283972,6.108899 -0.40026,0.70922 -0.849456,1.248918 -0.998215,1.199331 -0.194642,-0.06487 -0.270472,-2.599992 -0.270472,-9.042194 0,-7.877471 0.04432,-8.960575 0.369255,-9.023151 0.236385,-0.04553 0.527435,0.287408 0.808843,0.925236 0.941498,2.133953 4.450423,4.918749 7.479088,5.935647 1.42251,0.477619 1.972669,0.496334 14.917921,0.507517 13.105452,0.01132 13.460589,-4.8e-4 14.228059,-0.474859 0.945377,-0.584273 1.466588,-0.618099 1.662375,-0.107886 0.188614,0.491522 0.188614,3.777453 0,4.268975 -0.192963,0.502851 -0.920393,0.479305 -1.719302,-0.05565 -0.525592,-0.351944 -1.001479,-0.416348 -2.511049,-0.339833 l -1.862557,0.09441 0.509592,0.824536 c 0.296618,0.479938 0.559516,1.397175 0.629046,2.19472 0.103033,1.181842 0.02469,1.550002 -0.56998,2.678337 -0.560865,1.064206 -0.927313,1.432424 -1.965079,1.974556 l -1.275646,0.666407 -7.930734,-0.0052 c -7.153264,-0.0047 -8.024788,-0.04799 -8.890149,-0.441109 z m 16.38133,-1.620822 c 0.965872,-0.193175 2.060352,-1.275869 2.250414,-2.226186 0.221846,-1.109231 -0.319047,-2.429051 -1.253078,-3.05759 -0.805371,-0.541966 -0.887694,-0.547253 -8.496581,-0.545689 -7.191683,0.0014 -7.728242,0.03119 -8.385213,0.46426 -1.986819,1.30972 -1.737514,4.228401 0.442244,5.17747 0.560441,0.244016 2.417732,0.323722 7.709106,0.330831 3.833932,0.0051 7.31383,-0.05925 7.733108,-0.143096 z"
       id="path2350" />
    <g
       id="g2423"
       transform="matrix(1.2428261,0,0,1.2428261,-3.3979085,-14.774824)">
      <text
         xml:space="preserve"
         id="text2352"
         style="font-style:normal;font-weight:normal;font-size:10.5833px;line-height:1.25;font-family:sans-serif;white-space:pre;shape-inside:url(#rect2354);fill:#000000;fill-opacity:1;stroke:none;"
         transform="translate(-5.4790253,27.963046)"><tspan
           x="19.376953"
           y="54.022653"><tspan
             style="font-style:normal;font-variant:normal;font-weight:bold;font-stretch:normal;font-family:'Helvetica Rounded';-inkscape-font-specification:'Helvetica Rounded Bold'">AIRBAG</tspan></tspan></text>
      <text
         xml:space="preserve"
         id="text2352-0"
         style="font-style:normal;font-weight:normal;font-size:10.5833px;line-height:1.25;font-family:sans-serif;white-space:pre;shape-inside:url(#rect2354-9);fill:#000000;fill-opacity:1;stroke:none;"
         transform="translate(3.8078117,14.62253)"><tspan
           x="19.376953"
           y="54.022653"><tspan
             style="font-style:normal;font-variant:normal;font-weight:normal;font-stretch:normal;font-family:'Helvetica Rounded';-inkscape-font-specification:'Helvetica Rounded'">SRS</tspan></tspan></text>
      <rect
         style="fill:#000000;stroke:#000000;stroke-width:0.799999;stroke-linecap:square"
         id="rect2416"
         width="37.230652"
         height="0.47247022"
         x="15.740105"
         y="71.4375"
         ry="0.23623511" />
    </g>
    <path
       style="fill:#000000;stroke-width:0.23934"
       d="m 84.084395,38.20592 c 2.64186,-1.200174 3.72774,-4.521336 2.26481,-6.92693 -0.2595,-0.426715 -0.47182,-0.83964 -0.47182,-0.917613 0,-0.07796 0.69032,-0.09781 1.53403,-0.04409 3.07836,0.196016 7.64149,3.198573 9.28397,6.108899 0.40026,0.70922 0.84946,1.248918 0.99822,1.199331 0.19464,-0.06487 0.27047,-2.599992 0.27047,-9.042194 0,-7.877471 -0.0443,-8.960575 -0.36926,-9.023151 -0.23638,-0.04553 -0.52743,0.287408 -0.80884,0.925236 -0.9415,2.133953 -4.45042,4.918749 -7.47909,5.935647 -1.42251,0.477619 -1.97267,0.496334 -14.917918,0.507517 -13.105454,0.01132 -13.460591,-4.76e-4 -14.22806,-0.474859 -0.945377,-0.584273 -1.466588,-0.618099 -1.662374,-0.107886 -0.188614,0.491522 -0.188614,3.777453 0,4.268975 0.192963,0.502851 0.920393,0.479305 1.719302,-0.05565 0.525592,-0.351944 1.00148,-0.416348 2.511049,-0.339833 l 1.862556,0.09441 -0.50959,0.824536 c -0.296619,0.479938 -0.559517,1.397175 -0.629047,2.19472 -0.103034,1.181842 -0.02469,1.550002 0.569979,2.678337 0.560866,1.064206 0.927314,1.432424 1.965079,1.974556 l 1.275646,0.666407 7.930735,-0.0052 c 7.153263,-0.0047 8.024783,-0.04799 8.890153,-0.44111 z M 67.703062,36.585098 c -0.965872,-0.193175 -2.060353,-1.275869 -2.250416,-2.226186 -0.221846,-1.109231 0.319047,-2.429051 1.253079,-3.05759 0.805371,-0.541966 0.887693,-0.547253 8.496581,-0.545689 7.191679,0.0014 7.728239,0.03119 8.385209,0.46426 1.98682,1.30972 1.73752,4.228401 -0.44224,5.17747 -0.56044,0.244016 -2.417732,0.323722 -7.709106,0.330831 -3.833932,0.0051 -7.31383,-0.05925 -7.733107,-0.143096 z"
       id="path2350-1" />
  </g>
</svg>
